<svg width="36" height="20" viewBox="0 0 36 20" fill="none" xmlns="http://www.w3.org/2000/svg">
<rect x="3.05176e-05" y="0.5" width="36" height="19" rx="5" fill="#5258E4"/>
<g clip-path="url(#clip0_158_504)">
<path fill-rule="evenodd" clip-rule="evenodd" d="M13.6153 2.70996L13.1557 6.19073C13.1163 6.48911 13.2144 6.78925 13.4223 7.00681L15.6356 9.32232L12.4387 9.11582C12.1385 9.09643 11.8456 9.21424 11.6424 9.43617L9.27132 12.0257L9.72688 8.54165C9.76581 8.24388 9.6679 7.9445 9.46054 7.72728L7.25067 5.41236L10.444 5.6178C10.7438 5.63708 11.0362 5.51965 11.2393 5.29837L13.6153 2.70996Z" fill="white"/>
<path fill-rule="evenodd" clip-rule="evenodd" d="M7.33561 10.4053L7.07248 12.398C7.03619 12.6729 7.12652 12.9494 7.3181 13.1498L8.57635 14.4662L6.75886 14.3488C6.48225 14.3309 6.21245 14.4395 6.02527 14.6439L4.66779 16.1265L4.92865 14.1313C4.96452 13.857 4.87432 13.5812 4.6833 13.3811L3.42682 12.0649L5.24244 12.1817C5.51857 12.1995 5.7879 12.0913 5.97501 11.8875L7.33561 10.4053Z" fill="white"/>
</g>
<path d="M23.8195 12.19H21.7595L21.3795 13.39C21.3595 13.47 21.3195 13.5 21.2395 13.5H19.7895C19.6895 13.5 19.6695 13.45 19.6895 13.37L21.5895 7.82C21.6295 7.7 21.6795 7.55 21.6995 7.09C21.6995 7.04 21.7295 7.01 21.7795 7.01H23.7595C23.8095 7.01 23.8295 7.02 23.8495 7.07L26.0595 13.38C26.0895 13.46 26.0695 13.5 25.9995 13.5H24.3495C24.2895 13.5 24.2595 13.48 24.2295 13.42L23.8195 12.19ZM22.1395 10.72H23.4195C23.2295 10.05 22.9695 9.19 22.7695 8.45H22.7595C22.6095 9.16 22.3195 10.09 22.1395 10.72ZM28.566 7.1V13.38C28.566 13.46 28.546 13.5 28.456 13.5H26.926C26.836 13.5 26.816 13.46 26.816 13.38V7.1C26.816 7.03 26.856 7.01 26.916 7.01H28.466C28.536 7.01 28.566 7.03 28.566 7.1Z" fill="white"/>
<defs>
<clipPath id="clip0_158_504">
<rect width="14" height="14" fill="white" transform="translate(2.00003 2.5)"/>
</clipPath>
</defs>
</svg>
