<svg width="93" height="19" viewBox="0 0 93 19" fill="none" xmlns="http://www.w3.org/2000/svg">
<rect width="93" height="19" rx="5" fill="#5258E4"/>
<path fill-rule="evenodd" clip-rule="evenodd" d="M13.6154 2.20987L13.1558 5.69064C13.1164 5.98901 13.2145 6.28916 13.4224 6.50672L15.6357 8.82223L12.4388 8.61573C12.1385 8.59634 11.8456 8.71415 11.6425 8.93608L9.27138 11.5256L9.72694 8.04155C9.76587 7.74379 9.66796 7.44441 9.4606 7.22719L7.25073 4.91227L10.4441 5.11771C10.7438 5.13699 11.0362 5.01956 11.2393 4.79828L13.6154 2.20987Z" fill="white"/>
<path fill-rule="evenodd" clip-rule="evenodd" d="M7.33555 9.90535L7.07242 11.8981C7.03613 12.173 7.12646 12.4495 7.31803 12.6499L8.57629 13.9663L6.7588 13.8489C6.48219 13.831 6.21239 13.9395 6.0252 14.144L4.66773 15.6265L4.92859 13.6314C4.96446 13.3571 4.87426 13.0813 4.68323 12.8812L3.42676 11.565L5.24238 11.6818C5.51851 11.6996 5.78783 11.5914 5.97495 11.3875L7.33555 9.90535Z" fill="white"/>
<path d="M23.4171 12.03V13.31C23.4171 13.39 23.3971 13.42 23.3271 13.44C22.9571 13.57 22.5271 13.6 22.0071 13.6C19.9271 13.6 18.4171 12.45 18.4171 10.26C18.4171 8.25 19.9271 6.91 22.0971 6.91C22.7171 6.91 23.1171 6.96 23.3971 7.07C23.4571 7.09 23.4771 7.14 23.4771 7.21V8.48C23.4771 8.58 23.4271 8.58 23.3771 8.56C23.0671 8.43 22.6271 8.37 22.1671 8.37C20.9771 8.37 20.2171 9 20.2171 10.2C20.2171 11.64 21.2471 12.1 22.2971 12.1C22.6671 12.1 22.9871 12.07 23.3271 11.98C23.3871 11.96 23.4171 11.97 23.4171 12.03ZM27.2031 6.91C29.2631 6.91 30.3831 8.48 30.3831 10.21C30.3831 12.22 29.1531 13.6 27.1831 13.6C25.1931 13.6 24.0031 12.23 24.0031 10.24C24.0031 8.4 25.2131 6.91 27.2031 6.91ZM25.8031 10.25C25.8031 11.34 26.3031 12.12 27.2331 12.12C28.0831 12.12 28.5831 11.46 28.5831 10.25C28.5831 9.12 28.1031 8.39 27.1731 8.39C26.2831 8.39 25.8031 9.14 25.8031 10.25ZM31.5348 7.07C31.5448 7.01 31.5748 7.01 31.6248 7.01H34.0348C34.1148 7.01 34.1448 7.03 34.1648 7.09C34.4148 8.25 34.8148 10.29 34.9648 11.28H34.9748C35.1548 10.37 35.5748 8.28 35.8448 7.08C35.8548 7.04 35.8748 7.01 35.9348 7.01H38.3148C38.3848 7.01 38.4048 7.02 38.4148 7.07L38.6148 13.4C38.6148 13.47 38.5748 13.5 38.5148 13.5H36.9048C36.8448 13.5 36.8148 13.49 36.8148 13.42C36.8248 11.51 36.8248 8.87 36.8548 8.2H36.8248C36.6248 9.21 36.1048 11.85 35.7348 13.41C35.7248 13.47 35.6848 13.5 35.6148 13.5H34.1148C34.0448 13.5 34.0148 13.49 33.9948 13.41C33.6948 12.02 33.2048 9.53 32.9648 8.18H32.9348C32.9348 9.4 32.9448 11.33 32.8748 13.41C32.8748 13.49 32.8548 13.5 32.7848 13.5H31.3348C31.2548 13.5 31.2348 13.49 31.2348 13.4L31.5348 7.07ZM41.6011 7.1V13.38C41.6011 13.46 41.5811 13.5 41.4911 13.5H39.9611C39.8711 13.5 39.8511 13.46 39.8511 13.38V7.1C39.8511 7.03 39.8911 7.01 39.9511 7.01H41.5011C41.5711 7.01 41.6011 7.03 41.6011 7.1ZM44.5357 13.5H43.1157C43.0257 13.5 42.9957 13.49 42.9957 13.38V7.09C42.9957 7.03 43.0357 7.01 43.0957 7.01H45.1157C45.2057 7.01 45.2257 7.02 45.2657 7.1C45.8157 8.22 46.8357 10.49 47.0957 11.17H47.1157C47.0957 10.87 47.0757 10.27 47.0757 9.17V7.11C47.0757 7.04 47.0957 7.01 47.1857 7.01H48.5957C48.6857 7.01 48.7157 7.04 48.7157 7.12V13.38C48.7157 13.48 48.6757 13.5 48.5857 13.5H46.7157C46.6157 13.5 46.5857 13.48 46.5557 13.41C45.8857 11.98 45.0757 10.17 44.5957 8.88H44.5857C44.6257 9.57 44.6357 9.88 44.6357 10.85V13.39C44.6357 13.46 44.6157 13.5 44.5357 13.5ZM53.816 11.21L52.996 11.16C52.916 11.15 52.906 11.12 52.906 11.04V9.81C52.906 9.75 52.926 9.73 52.986 9.73H55.476C55.546 9.73 55.566 9.76 55.566 9.82V13.11C55.566 13.18 55.556 13.21 55.486 13.23C54.746 13.5 54.096 13.6 53.366 13.6C50.926 13.6 49.716 12.18 49.716 10.26C49.716 8.18 51.226 6.91 53.526 6.91C54.396 6.91 54.956 7 55.326 7.16C55.386 7.18 55.396 7.22 55.396 7.31V8.62C55.396 8.69 55.346 8.72 55.286 8.69C54.836 8.47 54.306 8.38 53.586 8.37C52.276 8.36 51.506 9.12 51.506 10.25C51.506 11.35 52.156 12.12 53.406 12.12C53.606 12.12 53.696 12.12 53.816 12.09V11.21ZM60.6304 13.6C59.8604 13.6 59.2504 13.48 58.8004 13.26C58.7304 13.23 58.7104 13.17 58.7104 13.08V11.65C58.7104 11.59 58.7504 11.56 58.8104 11.59C59.4604 11.97 60.1104 12.12 60.7604 12.12C61.3904 12.12 61.6104 11.95 61.6104 11.71C61.6104 11.46 61.4404 11.34 60.7704 11.07L60.3204 10.89C59.1804 10.44 58.7004 9.84 58.7004 8.94C58.7004 7.92 59.4604 6.91 61.2904 6.91C61.9104 6.91 62.5104 7 62.8904 7.16C62.9504 7.17 62.9704 7.22 62.9704 7.29V8.67C62.9704 8.7 62.9404 8.75 62.8604 8.72C62.4204 8.47 61.8004 8.35 61.2104 8.35C60.6004 8.35 60.4004 8.57 60.4004 8.79C60.4004 8.98 60.4904 9.14 61.2404 9.42L61.6404 9.57C63.0604 10.09 63.3704 10.73 63.3704 11.57C63.3704 12.91 62.2104 13.6 60.6304 13.6ZM67.1836 6.91C69.2436 6.91 70.3636 8.48 70.3636 10.21C70.3636 12.22 69.1336 13.6 67.1636 13.6C65.1736 13.6 63.9836 12.23 63.9836 10.24C63.9836 8.4 65.1936 6.91 67.1836 6.91ZM65.7836 10.25C65.7836 11.34 66.2836 12.12 67.2136 12.12C68.0636 12.12 68.5636 11.46 68.5636 10.25C68.5636 9.12 68.0836 8.39 67.1536 8.39C66.2636 8.39 65.7836 9.14 65.7836 10.25ZM74.3027 6.91C76.3627 6.91 77.4827 8.48 77.4827 10.21C77.4827 12.22 76.2527 13.6 74.2827 13.6C72.2927 13.6 71.1027 12.23 71.1027 10.24C71.1027 8.4 72.3127 6.91 74.3027 6.91ZM72.9027 10.25C72.9027 11.34 73.4027 12.12 74.3327 12.12C75.1827 12.12 75.6827 11.46 75.6827 10.25C75.6827 9.12 75.2027 8.39 74.2727 8.39C73.3827 8.39 72.9027 9.14 72.9027 10.25ZM80.0532 13.5H78.6332C78.5432 13.5 78.5132 13.49 78.5132 13.38V7.09C78.5132 7.03 78.5532 7.01 78.6132 7.01H80.6332C80.7232 7.01 80.7432 7.02 80.7832 7.1C81.3332 8.22 82.3532 10.49 82.6132 11.17H82.6332C82.6132 10.87 82.5932 10.27 82.5932 9.17V7.11C82.5932 7.04 82.6132 7.01 82.7032 7.01H84.1132C84.2032 7.01 84.2332 7.04 84.2332 7.12V13.38C84.2332 13.48 84.1932 13.5 84.1032 13.5H82.2332C82.1332 13.5 82.1032 13.48 82.0732 13.41C81.4032 11.98 80.5932 10.17 80.1132 8.88H80.1032C80.1432 9.57 80.1532 9.88 80.1532 10.85V13.39C80.1532 13.46 80.1332 13.5 80.0532 13.5Z" fill="white"/>
</svg>
