<svg width="93" height="19" viewBox="0 0 93 19" fill="none" xmlns="http://www.w3.org/2000/svg">
<rect width="93" height="19" rx="5" fill="#5258E4"/>
<path fill-rule="evenodd" clip-rule="evenodd" d="M13.6153 2.20984L13.1557 5.69061C13.1163 5.98898 13.2143 6.28913 13.4223 6.50669L15.6356 8.8222L12.4387 8.6157C12.1384 8.59631 11.8455 8.71412 11.6423 8.93605L9.27126 11.5256L9.72682 8.04152C9.76575 7.74376 9.66784 7.44438 9.46048 7.22716L7.25061 4.91224L10.444 5.11768C10.7437 5.13696 11.0361 5.01953 11.2392 4.79825L13.6153 2.20984Z" fill="white"/>
<path fill-rule="evenodd" clip-rule="evenodd" d="M7.33555 9.90541L7.07242 11.8982C7.03613 12.173 7.12646 12.4495 7.31803 12.6499L8.57629 13.9663L6.7588 13.8489C6.48219 13.8311 6.21239 13.9396 6.0252 14.144L4.66773 15.6266L4.92859 13.6315C4.96446 13.3572 4.87426 13.0814 4.68323 12.8813L3.42676 11.565L5.24238 11.6818C5.51851 11.6996 5.78783 11.5914 5.97495 11.3876L7.33555 9.90541Z" fill="white"/>
<path d="M24.5793 12.12L24.3893 13.4C24.3793 13.48 24.3393 13.5 24.2693 13.5H20.0293C19.9493 13.5 19.9293 13.47 19.9293 13.4V7.1C19.9293 7.03 19.9493 7.01 20.0293 7.01H24.1693C24.2593 7.01 24.2793 7.02 24.2993 7.09L24.4393 8.37C24.4493 8.43 24.4193 8.49 24.3593 8.49H21.6793V9.46H24.1493C24.2093 9.46 24.2393 9.48 24.2393 9.55V10.86C24.2393 10.92 24.1993 10.93 24.1493 10.93H21.6793V12.02H24.4893C24.5793 12.02 24.5893 12.05 24.5793 12.12ZM29.1886 12.19H27.1286L26.7486 13.39C26.7286 13.47 26.6886 13.5 26.6086 13.5H25.1586C25.0586 13.5 25.0386 13.45 25.0586 13.37L26.9586 7.82C26.9986 7.7 27.0486 7.55 27.0686 7.09C27.0686 7.04 27.0986 7.01 27.1486 7.01H29.1286C29.1786 7.01 29.1986 7.02 29.2186 7.07L31.4286 13.38C31.4586 13.46 31.4386 13.5 31.3686 13.5H29.7186C29.6586 13.5 29.6286 13.48 29.5986 13.42L29.1886 12.19ZM27.5086 10.72H28.7886C28.5986 10.05 28.3386 9.19 28.1386 8.45H28.1286C27.9786 9.16 27.6886 10.09 27.5086 10.72ZM33.7951 13.5H32.2851C32.2051 13.5 32.1851 13.47 32.1851 13.4V7.11C32.1851 7.06 32.1951 7.01 32.2651 7.01H34.5851C36.3351 7.01 37.2651 7.77 37.2651 9C37.2651 9.86 36.7151 10.41 36.1051 10.71C36.4851 11.26 37.3751 12.79 37.7351 13.37C37.7851 13.43 37.7851 13.5 37.7051 13.5H35.9251C35.8151 13.5 35.7751 13.49 35.7451 13.43C35.4751 12.95 34.9251 11.92 34.6151 11.37C34.5451 11.23 34.4851 11.19 34.2951 11.19H33.8951V13.4C33.8951 13.47 33.8651 13.5 33.7951 13.5ZM33.8951 9.76H34.5751C35.1551 9.76 35.5251 9.54 35.5251 9.08C35.5251 8.6 35.1851 8.42 34.6251 8.42H33.8951V9.76ZM42.5082 13.5H38.4282C38.3282 13.5 38.3182 13.46 38.3182 13.37V7.11C38.3182 7.04 38.3382 7.01 38.4082 7.01H39.9782C40.0382 7.01 40.0582 7.04 40.0582 7.1V12.02H42.7682C42.8382 12.02 42.8582 12.05 42.8482 12.12L42.6382 13.4C42.6182 13.49 42.5682 13.5 42.5082 13.5ZM43.8055 10.86L41.7355 7.13C41.6855 7.05 41.7555 7.01 41.8155 7.01H43.5755C43.6555 7.01 43.6755 7.03 43.6955 7.08C44.5055 8.87 44.7255 9.42 44.8555 9.75C44.9955 9.42 45.2355 8.78 45.9555 7.07C45.9755 7.02 45.9955 7.01 46.0555 7.01H47.7455C47.8155 7.01 47.8355 7.05 47.8055 7.1L45.7155 10.91C45.6455 11.03 45.6255 11.12 45.6255 11.28C45.6255 11.94 45.6255 13.38 45.6255 13.38C45.6255 13.47 45.6055 13.5 45.5155 13.5H43.9955C43.9055 13.5 43.8755 13.47 43.8755 13.38V11.2C43.8755 11.03 43.8655 10.98 43.8055 10.86ZM53.9836 12.19H51.9236L51.5436 13.39C51.5236 13.47 51.4836 13.5 51.4036 13.5H49.9536C49.8536 13.5 49.8336 13.45 49.8536 13.37L51.7536 7.82C51.7936 7.7 51.8436 7.55 51.8636 7.09C51.8636 7.04 51.8936 7.01 51.9436 7.01H53.9236C53.9736 7.01 53.9936 7.02 54.0136 7.07L56.2236 13.38C56.2536 13.46 56.2336 13.5 56.1636 13.5H54.5136C54.4536 13.5 54.4236 13.48 54.3936 13.42L53.9836 12.19ZM52.3036 10.72H53.5836C53.3936 10.05 53.1336 9.19 52.9336 8.45H52.9236C52.7736 9.16 52.4836 10.09 52.3036 10.72ZM61.464 12.03V13.31C61.464 13.39 61.444 13.42 61.374 13.44C61.004 13.57 60.574 13.6 60.054 13.6C57.974 13.6 56.464 12.45 56.464 10.26C56.464 8.25 57.974 6.91 60.144 6.91C60.764 6.91 61.164 6.96 61.444 7.07C61.504 7.09 61.524 7.14 61.524 7.21V8.48C61.524 8.58 61.474 8.58 61.424 8.56C61.114 8.43 60.674 8.37 60.214 8.37C59.024 8.37 58.264 9 58.264 10.2C58.264 11.64 59.294 12.1 60.344 12.1C60.714 12.1 61.034 12.07 61.374 11.98C61.434 11.96 61.464 11.97 61.464 12.03ZM67.05 12.03V13.31C67.05 13.39 67.03 13.42 66.96 13.44C66.59 13.57 66.16 13.6 65.64 13.6C63.56 13.6 62.05 12.45 62.05 10.26C62.05 8.25 63.56 6.91 65.73 6.91C66.35 6.91 66.75 6.96 67.03 7.07C67.09 7.09 67.11 7.14 67.11 7.21V8.48C67.11 8.58 67.06 8.58 67.01 8.56C66.7 8.43 66.26 8.37 65.8 8.37C64.61 8.37 63.85 9 63.85 10.2C63.85 11.64 64.88 12.1 65.93 12.1C66.3 12.1 66.62 12.07 66.96 11.98C67.02 11.96 67.05 11.97 67.05 12.03ZM72.7043 12.12L72.5143 13.4C72.5043 13.48 72.4643 13.5 72.3943 13.5H68.1543C68.0743 13.5 68.0543 13.47 68.0543 13.4V7.1C68.0543 7.03 68.0743 7.01 68.1543 7.01H72.2943C72.3843 7.01 72.4043 7.02 72.4243 7.09L72.5643 8.37C72.5743 8.43 72.5443 8.49 72.4843 8.49H69.8043V9.46H72.2743C72.3343 9.46 72.3643 9.48 72.3643 9.55V10.86C72.3643 10.92 72.3243 10.93 72.2743 10.93H69.8043V12.02H72.6143C72.7043 12.02 72.7143 12.05 72.7043 12.12ZM75.3569 13.6C74.5869 13.6 73.9769 13.48 73.5269 13.26C73.4569 13.23 73.4369 13.17 73.4369 13.08V11.65C73.4369 11.59 73.4769 11.56 73.5369 11.59C74.1869 11.97 74.8369 12.12 75.4869 12.12C76.1169 12.12 76.3369 11.95 76.3369 11.71C76.3369 11.46 76.1669 11.34 75.4969 11.07L75.0469 10.89C73.9069 10.44 73.4269 9.84 73.4269 8.94C73.4269 7.92 74.1869 6.91 76.0169 6.91C76.6369 6.91 77.2369 7 77.6169 7.16C77.6769 7.17 77.6969 7.22 77.6969 7.29V8.67C77.6969 8.7 77.6669 8.75 77.5869 8.72C77.1469 8.47 76.5269 8.35 75.9369 8.35C75.3269 8.35 75.1269 8.57 75.1269 8.79C75.1269 8.98 75.2169 9.14 75.9669 9.42L76.3669 9.57C77.7869 10.09 78.0969 10.73 78.0969 11.57C78.0969 12.91 76.9369 13.6 75.3569 13.6ZM80.7475 13.6C79.9775 13.6 79.3675 13.48 78.9175 13.26C78.8475 13.23 78.8275 13.17 78.8275 13.08V11.65C78.8275 11.59 78.8675 11.56 78.9275 11.59C79.5775 11.97 80.2275 12.12 80.8775 12.12C81.5075 12.12 81.7275 11.95 81.7275 11.71C81.7275 11.46 81.5575 11.34 80.8875 11.07L80.4375 10.89C79.2975 10.44 78.8175 9.84 78.8175 8.94C78.8175 7.92 79.5775 6.91 81.4075 6.91C82.0275 6.91 82.6275 7 83.0075 7.16C83.0675 7.17 83.0875 7.22 83.0875 7.29V8.67C83.0875 8.7 83.0575 8.75 82.9775 8.72C82.5375 8.47 81.9175 8.35 81.3275 8.35C80.7175 8.35 80.5175 8.57 80.5175 8.79C80.5175 8.98 80.6075 9.14 81.3575 9.42L81.7575 9.57C83.1775 10.09 83.4875 10.73 83.4875 11.57C83.4875 12.91 82.3275 13.6 80.7475 13.6Z" fill="white"/>
</svg>
